<?xml version="1.0" encoding="utf-8"?>
<!-- Generator: Adobe Illustrator 17.0.2, SVG Export Plug-In . SVG Version: 6.00 Build 0)  -->
<!DOCTYPE svg PUBLIC "-//W3C//DTD SVG 1.0//EN" "http://www.w3.org/TR/2001/REC-SVG-20010904/DTD/svg10.dtd">
<svg version="1.0" id="Layer_1" xmlns="http://www.w3.org/2000/svg" xmlns:xlink="http://www.w3.org/1999/xlink" x="0px" y="0px"
	 width="50px" height="50px" viewBox="0 0 50 50" style="enable-background:new 0 0 50 50;" xml:space="preserve">
<path d="M46.914,44.086L33.886,31.058C36.443,28.082,38,24.223,38,20c0-9.374-7.626-17-17-17S4,10.626,4,20s7.626,17,17,17
	c3.711,0,7.138-1.209,9.937-3.235l13.149,13.149L46.914,44.086z M6,20c0-8.271,6.729-15,15-15c8.271,0,15,6.729,15,15
	c0,8.271-6.729,15-15,15C12.729,35,6,28.271,6,20z"/>
</svg>
